<?xml version="1.0" encoding="UTF-8" standalone="no"?>
<svg
   xmlns:dc="http://purl.org/dc/elements/1.1/"
   xmlns:cc="http://creativecommons.org/ns#"
   xmlns:rdf="http://www.w3.org/1999/02/22-rdf-syntax-ns#"
   xmlns:svg="http://www.w3.org/2000/svg"
   xmlns="http://www.w3.org/2000/svg"
   xmlns:sodipodi="http://sodipodi.sourceforge.net/DTD/sodipodi-0.dtd"
   xmlns:inkscape="http://www.inkscape.org/namespaces/inkscape"
   width="512"
   height="512"
   viewBox="0 0 135.46666 135.46666"
   version="1.1"
   id="svg8"
   inkscape:version="1.0.1 (3bc2e813f5, 2020-09-07)"
   sodipodi:docname="something-logo-light.svg">
  <defs
     id="defs2" />
  <sodipodi:namedview
     id="base"
     pagecolor="#ffffff"
     bordercolor="#666666"
     borderopacity="1.0"
     inkscape:pageopacity="0.0"
     inkscape:pageshadow="2"
     inkscape:zoom="1.8859045"
     inkscape:cx="215.17806"
     inkscape:cy="239.49941"
     inkscape:document-units="px"
     inkscape:current-layer="layer2"
     inkscape:document-rotation="0"
     showgrid="true"
     inkscape:lockguides="false"
     showguides="true"
     inkscape:window-width="1920"
     inkscape:window-height="1057"
     inkscape:window-x="-8"
     inkscape:window-y="-8"
     inkscape:window-maximized="1"
     fit-margin-top="0"
     fit-margin-left="0"
     fit-margin-right="0"
     fit-margin-bottom="0"
     inkscape:pagecheckerboard="true"
     units="px">
    <inkscape:grid
       type="xygrid"
       id="grid833"
       empspacing="4"
       spacingx="8.4666662"
       spacingy="8.4666662"
       originx="0"
       originy="0" />
  </sodipodi:namedview>
  <metadata
     id="metadata5">
    <rdf:RDF>
      <cc:Work
         rdf:about="">
        <dc:format>image/svg+xml</dc:format>
        <dc:type
           rdf:resource="http://purl.org/dc/dcmitype/StillImage" />
        <dc:title></dc:title>
      </cc:Work>
    </rdf:RDF>
  </metadata>
  <g
     inkscape:groupmode="layer"
     id="layer2"
     inkscape:label="logo"
     transform="translate(-10.583334,-10.583334)"
     style="display:inline">
    <path
       id="path1044"
       style="display:inline;fill:#ffffff;fill-opacity:1;stroke:none;stroke-width:1.12889;stroke-linecap:round;stroke-linejoin:round;stroke-miterlimit:4;stroke-dasharray:none"
       d="m 33.161112,10.583334 c -12.508125,0 -22.577778,10.069653 -22.577778,22.577778 v 90.311108 c 0,12.50812 10.069653,22.57777 22.577778,22.57777 h 90.311108 c 12.50807,0 22.57777,-10.06965 22.57777,-22.57777 V 33.161112 c 0,-12.508125 -10.0697,-22.577778 -22.57777,-22.577778 z m 11.288887,16.933332 h 11.291089 a 5.6444366,5.6444366 0 0 1 5.642244,5.642244 5.6444366,5.6444366 0 0 1 -5.642244,5.648845 H 44.449999 c -0.940762,0 -2.536162,0.646605 -3.765905,1.876339 -1.229734,1.229743 -1.876292,2.825143 -1.876339,3.765905 v 22.575576 c 4.7e-5,0.940745 0.646605,2.544977 1.876339,3.77472 1.2297,1.229735 2.825143,1.874172 3.765905,1.874125 4.703663,4.7e-5 8.746099,2.171247 11.7497,5.174814 3.003566,3.003601 5.183633,7.054869 5.183633,11.758519 v 22.575577 c 0,4.70369 -2.18002,8.74605 -5.183633,11.7497 -3.003601,3.00361 -7.046003,5.18367 -11.7497,5.18363 H 33.15891 a 5.6444366,5.6444366 0 0 1 -5.642243,-5.64224 5.6444366,5.6444366 0 0 1 5.642243,-5.64885 h 11.291089 c 0.940762,0 2.536209,-0.64661 3.765905,-1.87634 1.229734,-1.2297 1.876339,-2.82514 1.876339,-3.7659 V 89.607753 c 0,-0.940715 -0.646605,-2.544977 -1.876339,-3.77472 -1.229696,-1.229735 -2.825101,-1.874125 -3.765905,-1.874125 -4.703697,0 -8.746099,-2.171204 -11.7497,-5.174818 -3.003613,-3.003643 -5.183586,-7.054865 -5.183632,-11.758515 V 44.449999 c 4.6e-5,-4.703663 2.180066,-8.746099 5.183632,-11.7497 3.003601,-3.003566 7.046003,-5.183632 11.7497,-5.183633 z m 33.866665,0 a 5.6444366,5.6444366 0 0 1 5.642244,5.642244 v 22.582178 56.442242 c 0,0.9408 0.64439,2.53616 1.874125,3.7659 1.229743,1.22973 2.834005,1.87634 3.77472,1.87634 h 11.284487 a 5.6444366,5.6444366 0 0 1 5.64885,5.64885 5.6444366,5.6444366 0 0 1 -5.64885,5.64224 H 89.607753 c -4.703697,0 -8.754918,-2.18002 -11.758515,-5.18363 -3.003567,-3.0036 -5.174771,-7.04604 -5.174818,-11.7497 V 61.383331 H 61.383331 a 5.6444366,5.6444366 0 0 1 -5.642243,-5.642243 5.6444366,5.6444366 0 0 1 5.642243,-5.648845 H 72.67442 V 33.15891 a 5.6444366,5.6444366 0 0 1 5.642244,-5.642244 z m 22.575576,0 a 5.6444371,5.6444371 0 0 1 5.64885,5.642244 v 39.51551 h 5.64224 c 4.70366,4.7e-5 8.7461,2.171247 11.7497,5.174814 3.00361,3.003601 5.18363,7.054822 5.18363,11.758519 v 33.866667 a 5.6444371,5.6444371 0 0 1 -5.64224,5.64224 5.6444371,5.6444371 0 0 1 -5.64885,-5.64224 V 89.607753 c 0,-0.940715 -0.64661,-2.544977 -1.87634,-3.77472 -1.22974,-1.229735 -2.8251,-1.874125 -3.7659,-1.874125 h -5.64224 v 16.933332 a 5.6444371,5.6444371 0 0 1 -5.64885,5.64885 5.6444371,5.6444371 0 0 1 -5.642244,-5.64885 V 78.316664 33.15891 a 5.6444371,5.6444371 0 0 1 5.642244,-5.642244 z" />
  </g>
</svg>
